<?xml version="1.0" encoding="UTF-8"?>
<svg width="512" height="512" viewBox="0 0 512 512" fill="none" xmlns="http://www.w3.org/2000/svg">
  <circle cx="256" cy="256" r="256" fill="#F7931A"/>
  <path d="M363.361 280.545C368.949 252.694 347.811 238.443 318.278 229.057L328.12 189.976L303.392 183.773L293.798 221.77C287.925 220.199 281.872 218.725 275.864 217.271L285.526 179.025L260.815 172.822L250.968 211.887C246.137 210.706 241.403 209.545 236.825 208.305L236.878 208.132L202.422 199.51L195.743 225.81C195.743 225.81 214.084 229.967 213.698 230.227C223.063 232.444 224.597 238.657 224.277 243.638L213.166 287.682C213.813 287.85 214.644 288.095 215.572 288.475L213.13 287.891L197.272 349.576C196.251 352.628 193.398 357.341 186.904 355.83C187.167 356.177 168.935 351.393 168.935 351.393L156.23 379.487L188.887 387.62C194.336 389.078 199.673 390.615 204.922 392.063L195.001 431.595L219.703 437.798L229.551 398.677C235.672 400.421 241.614 402.054 247.425 403.595L237.613 442.561L262.341 448.764L272.262 409.321C311.92 416.589 342.185 414.189 355.034 378.087C365.476 348.759 354.943 331.855 333.447 320.786C348.952 317.31 360.711 306.51 363.361 280.545ZM306.453 361.079C299.171 390.407 248.059 374.538 230.91 370.18L243.916 318.551C261.065 322.93 314.057 330.481 306.453 361.079ZM313.735 280.233C307.047 307.09 264.403 293.494 250.306 289.831L262.072 242.998C276.169 246.661 320.712 252.225 313.735 280.233Z" fill="white"/>
</svg>